<?xml version="1.0" encoding="UTF-8" standalone="no"?>
<!-- Created with Inkscape (http://www.inkscape.org/) -->

<svg
   width="183.07126mm"
   height="85.115364mm"
   viewBox="0 0 183.07126 85.115364"
   version="1.1"
   id="svg1"
   xml:space="preserve"
   xmlns="http://www.w3.org/2000/svg"
   xmlns:svg="http://www.w3.org/2000/svg"><defs
     id="defs1" /><g
     id="layer1"
     transform="translate(-9.3887678,-11.087347)"><g
       id="g1"
       transform="translate(-3.8055511,-1.1906362)"><path
         style="fill:#0f4a92"
         d="m 16.860436,97.257572 c -0.464272,-0.215056 -3.168062,-2.342504 -3.406254,-2.680174 -0.253946,-0.360004 -0.338186,-1.023427 -0.178999,-1.409694 0.08594,-0.208538 2.281773,-3.167913 4.078881,-5.497205 0.354146,-0.459022 2.396405,-3.14903 4.538352,-5.977796 2.141947,-2.828766 4.612918,-6.091606 5.491046,-7.250756 1.802135,-2.378861 1.839818,-2.413104 2.6489,-2.407129 0.35184,0.0026 0.536518,0.04331 0.726688,0.160206 l 0.254967,0.156722 1.885925,-2.479595 c 1.037259,-1.363777 1.885925,-2.503897 1.885925,-2.533599 0,-0.0297 -0.416385,-0.400246 -0.9253,-0.823429 -0.508916,-0.423184 -0.925301,-0.80622 -0.925301,-0.851192 0,-0.04497 0.179617,-0.316272 0.399149,-0.602891 0.219532,-0.286619 0.39915,-0.541834 0.39915,-0.567145 0,-0.02531 -0.207587,-0.272224 -0.461303,-0.548694 -3.747939,-4.084059 -6.453822,-9.62632 -7.479032,-15.318753 -0.631181,-3.504603 -0.616627,-7.595777 0.03924,-11.031033 0.914337,-4.789033 3.137009,-9.626271 6.177348,-13.443862 2.122899,-2.665611 4.677967,-4.983518 7.602124,-6.896494 7.413183,-4.849686 16.610268,-6.240255 25.110118,-3.796565 2.740139,0.787784 4.83762,1.714541 7.564003,3.342099 3.165911,1.889942 6.136176,4.524588 8.458849,7.503057 0.569305,0.730045 1.835709,2.588422 2.424275,3.557488 l 0.267691,0.44075 0.639466,-0.404379 c 1.437708,-0.909162 3.695635,-1.864208 5.471853,-2.314456 3.118165,-0.790414 6.854071,-0.786187 10.027418,0.01135 3.530255,0.887232 6.570265,2.605254 9.090545,5.137408 1.65665,1.664457 2.5669,2.937296 3.62741,5.072366 1.30483,2.626958 1.89312,5.00142 1.97381,7.966655 0.0718,2.63693 -0.28316,4.847293 -1.15256,7.177943 -0.93501,2.506539 -2.33119,4.684171 -4.25189,6.631711 -3.09133,3.134519 -6.90274,5.056875 -11.410629,5.755165 -1.174487,0.181933 -4.678469,0.1856 -5.860146,0.0061 -3.091219,-0.469478 -5.648876,-1.457119 -8.218938,-3.173749 -0.339277,-0.226614 -0.654366,-0.434067 -0.700198,-0.461007 -0.05034,-0.02959 -0.17889,0.10177 -0.32467,0.331744 -0.472954,0.746107 -1.444649,2.079324 -2.108378,2.892807 -0.779332,0.955169 -2.716805,2.956315 -3.578144,3.695737 -4.767578,4.092756 -10.262194,6.567164 -16.439268,7.403146 -1.623204,0.219679 -4.939644,0.274538 -6.661106,0.110186 -1.714578,-0.163694 -3.217617,-0.419778 -4.769078,-0.812542 -2.995002,-0.758207 -5.120144,-1.629841 -8.104091,-3.323917 l -0.338824,-0.19236 -0.415981,0.581014 c -0.242391,0.338554 -0.449274,0.560993 -0.495761,0.533038 -0.04388,-0.02639 -0.507158,-0.368178 -1.029509,-0.759537 -0.52235,-0.391358 -0.981194,-0.71156 -1.019652,-0.71156 -0.03846,0 -0.894893,1.095106 -1.903189,2.433568 l -1.833265,2.433568 0.189343,0.225022 c 0.498197,0.592074 0.630785,1.292531 0.348009,1.838524 -0.08269,0.15966 -0.953983,1.351664 -1.936207,2.648899 -0.982224,1.297235 -2.908858,3.844533 -4.281407,5.660662 -1.37255,1.816129 -3.202035,4.232796 -4.065522,5.370371 -0.863487,1.137575 -2.283318,3.015391 -3.155179,4.172924 -2.112352,2.804477 -2.143467,2.84235 -2.473524,3.010733 -0.370503,0.189017 -1.019102,0.192916 -1.417183,0.0085 z M 58.755031,71.013379 c 6.910577,-0.715202 12.999498,-3.677113 17.67274,-8.596773 0.771742,-0.812435 2.169191,-2.522198 2.656787,-3.250547 l 0.304693,-0.455136 -0.727205,-0.778598 c -2.825755,-3.025456 -4.531237,-6.605201 -5.194215,-10.902474 -0.163809,-1.061779 -0.221478,-3.30062 -0.115754,-4.493867 0.437981,-4.943238 2.462693,-9.31957 5.870351,-12.688524 l 0.900068,-0.889845 -0.54491,-0.81561 c -1.996918,-2.988948 -4.431125,-5.519056 -7.258829,-7.544806 -3.69039,-2.643774 -8.083345,-4.354545 -12.63292,-4.919703 -7.441319,-0.924377 -14.74421,1.197623 -20.835904,6.054285 -0.970532,0.773765 -3.416369,3.226617 -4.188332,4.200342 -2.936556,3.704066 -4.868007,7.879406 -5.680619,12.280159 -0.551713,2.987832 -0.610509,5.992812 -0.176077,8.999001 0.406412,2.812289 1.307521,5.715667 2.533956,8.164415 1.661388,3.317194 3.581485,5.910263 6.132192,8.281453 l 1.088589,1.011975 0.03629,-20.667112 0.03629,-20.667112 16.238118,-0.0183 16.238118,-0.0183 v 4.463373 4.463374 H 59.714554 48.320656 v 4.245496 4.245496 h 10.087591 10.087591 v 4.463214 4.463214 H 58.408247 48.320656 v 7.910412 7.910412 l -4.336212,0.0026 -4.336213,0.0026 0.217718,0.179676 c 0.730303,0.602701 2.746543,1.822725 4.287953,2.594637 2.816641,1.410524 6.293163,2.417075 9.428268,2.729748 0.439064,0.04379 0.896271,0.09087 1.016016,0.104625 0.641931,0.07374 3.208478,0.03433 4.156845,-0.06382 z M 96.762864,55.594715 c 1.468633,-0.314236 2.621543,-0.797864 3.807726,-1.597283 1.94689,-1.31208 3.40449,-3.116454 4.30946,-5.334698 1.3195,-3.234326 1.06071,-7.026007 -0.69593,-10.196448 -0.51342,-0.926634 -1.11215,-1.708328 -1.94469,-2.538959 -1.57496,-1.57135 -3.597998,-2.620733 -5.839429,-3.029002 -1.011473,-0.184236 -2.898743,-0.164711 -3.937996,0.04074 -1.423039,0.281324 -2.869812,0.889441 -3.983865,1.674522 -0.683534,0.481692 -1.759197,1.434768 -1.853903,1.642626 -0.05987,0.1314 -0.04193,0.346076 0.07675,0.918625 0.907943,4.380027 0.807055,9.138322 -0.286657,13.519928 -0.11956,0.478979 -0.234841,0.929331 -0.256181,1.000783 -0.02766,0.09261 0.134775,0.307933 0.565738,0.749936 1.754952,1.799902 3.625334,2.806445 6.047483,3.254443 0.858362,0.158761 3.024636,0.101659 3.991493,-0.105214 z M 84.030341,45.434959 c 0.136078,-1.595789 0.004,-5.568856 -0.171334,-5.154358 -0.02533,0.05987 -0.130023,0.402778 -0.232656,0.762012 -0.336765,1.178738 -0.425777,1.861764 -0.430324,3.302053 -0.0043,1.363154 0.03923,1.748484 0.34027,3.011762 l 0.155646,0.653153 0.124405,-0.762012 c 0.06842,-0.419107 0.16472,-1.234781 0.213993,-1.81261 z M 150.6711,85.417632 c -1.91755,-0.237606 -3.30881,-1.493247 -3.69228,-3.33236 -0.0615,-0.29498 -0.10203,-0.653065 -0.0901,-0.795746 l 0.0218,-0.259419 0.67327,-0.06455 c 0.3703,-0.0355 0.6881,-0.04972 0.70623,-0.03159 0.0181,0.01813 0.0804,0.2807 0.13829,0.583493 0.13471,0.704029 0.37795,1.180009 0.80347,1.572239 0.64709,0.596473 1.49101,0.850069 2.61367,0.785408 0.82499,-0.04752 1.24803,-0.19776 1.69934,-0.603529 0.50601,-0.454947 0.6917,-0.870982 0.69279,-1.552148 7.5e-4,-0.47535 -0.0276,-0.594788 -0.22349,-0.941512 -0.3821,-0.676341 -0.83852,-0.903431 -3.13589,-1.560257 -1.71023,-0.488962 -2.40978,-0.856683 -2.96257,-1.557296 -0.42136,-0.534046 -0.60596,-1.130142 -0.60596,-1.956739 0,-1.508796 0.66826,-2.641531 1.90281,-3.225362 0.73225,-0.346288 1.19819,-0.443049 2.12497,-0.441289 1.69175,0.0032 2.95048,0.709173 3.5913,2.014191 0.21313,0.434053 0.43265,1.267545 0.43522,1.652506 0.001,0.180651 -0.0206,0.191143 -0.48861,0.235345 -0.94083,0.08886 -0.93598,0.09018 -0.98523,-0.269128 -0.12653,-0.923164 -0.64528,-1.638595 -1.41049,-1.945285 -0.34927,-0.139984 -0.55113,-0.167113 -1.25105,-0.168134 -0.74869,-0.0011 -0.87601,0.01821 -1.23705,0.187492 -0.52797,0.247558 -0.8935,0.576174 -1.08814,0.978249 -0.12941,0.267318 -0.15298,0.422931 -0.13075,0.863108 0.0537,1.062496 0.53682,1.406169 2.95769,2.103765 2.31543,0.667214 3.08902,1.133112 3.59883,2.167409 0.49595,1.006187 0.49656,2.439172 0.001,3.485712 -0.43571,0.921019 -1.46501,1.725155 -2.51367,1.963789 -0.6301,0.143388 -1.51719,0.189539 -2.14587,0.111639 z m 11.82815,0.0022 c -1.11217,-0.153475 -1.8514,-0.511568 -2.50141,-1.211712 -0.62317,-0.671244 -0.94337,-1.553366 -1.07456,-2.960332 -0.0808,-0.866186 -0.10272,-7.746494 -0.0273,-8.545422 l 0.0463,-0.489865 h 0.67211 0.67211 l 0.0333,4.55393 c 0.0285,3.897157 0.0504,4.619546 0.15146,5.008899 0.25511,0.982506 0.75453,1.600474 1.54023,1.905845 0.36028,0.140027 0.56411,0.166743 1.26413,0.165688 1.47647,-0.0022 2.15485,-0.434055 2.56307,-1.631568 0.15253,-0.447443 0.15761,-0.584217 0.19381,-5.213003 l 0.0372,-4.753504 0.70759,-0.02077 0.70758,-0.02077 v 4.654017 c 0,4.419961 -0.008,4.691087 -0.15016,5.391142 -0.41926,2.058103 -1.59764,3.055857 -3.76876,3.191081 -0.33928,0.02113 -0.81929,0.01049 -1.06669,-0.02365 z m -29.10598,-0.232636 c -0.0422,-0.05118 -0.32741,-0.893174 -0.63382,-1.871089 -0.3064,-0.977916 -0.86249,-2.708772 -1.23574,-3.846347 -1.0303,-3.140109 -2.28461,-7.097761 -2.28461,-7.208519 0,-0.02951 0.35007,-0.04438 0.77794,-0.03305 l 0.77793,0.0206 0.26923,0.870871 c 1.58508,5.127277 2.73778,8.944105 2.92583,9.688094 l 0.22921,0.906811 0.20559,-0.761666 c 0.26292,-0.974095 0.65789,-2.283311 1.45584,-4.825731 0.35077,-1.117618 0.90595,-2.897461 1.23372,-3.955206 l 0.59596,-1.923173 0.78062,-0.02069 c 0.68284,-0.0181 0.77518,-0.0065 0.73716,0.0926 -0.0239,0.06231 -0.66705,2.031078 -1.4292,4.375042 -0.76215,2.343965 -1.70441,5.225156 -2.09392,6.402646 l -0.7082,2.140891 -0.76341,0.02049 c -0.55366,0.01486 -0.7845,-0.0051 -0.84013,-0.07257 z m 8.76375,-6.443162 v -6.531533 h 0.72573 0.72572 v 6.531533 6.531533 h -0.72572 -0.72573 z m 27.8417,6.475312 c -0.0191,-0.03092 0.351,-1.231091 0.82247,-2.667043 0.47147,-1.435952 1.37059,-4.178389 1.99805,-6.094306 0.62745,-1.915916 1.20483,-3.654936 1.28306,-3.86449 l 0.14224,-0.381006 h 0.82334 0.82335 l 0.41501,1.251877 c 0.49051,1.479638 2.38595,7.036672 3.26129,9.561438 0.33905,0.977916 0.63733,1.885315 0.66286,2.016442 l 0.0464,0.238413 -0.78974,-0.0207 -0.78974,-0.0207 -0.44751,-1.306306 c -0.24613,-0.718469 -0.53573,-1.592061 -0.64356,-1.941317 l -0.19605,-0.63501 h -2.34517 c -2.17075,0 -2.34797,0.0094 -2.38285,0.127002 -0.0207,0.06985 -0.26943,0.894457 -0.55268,1.832458 -0.28324,0.938 -0.53195,1.762606 -0.55267,1.832458 -0.0327,0.11037 -0.13627,0.127002 -0.79053,0.127002 -0.41406,0 -0.76847,-0.0253 -0.78758,-0.05622 z m 6.848,-5.391876 c 0,-0.08723 -0.64415,-2.203315 -1.12511,-3.696049 -0.17362,-0.538852 -0.38577,-1.25732 -0.47144,-1.596597 -0.0857,-0.339277 -0.18155,-0.643393 -0.21306,-0.675813 -0.0315,-0.03242 -0.0784,0.07335 -0.10429,0.235054 -0.0628,0.39301 -0.57798,2.149146 -1.20397,4.104455 -0.28091,0.877458 -0.51076,1.62042 -0.51076,1.651027 0,0.03061 0.81645,0.05565 1.81432,0.05565 1.24134,0 1.81431,-0.02455 1.81431,-0.07773 z m 5.87838,-1.083436 v -6.531533 h 0.72573 0.72573 v 5.654726 c 0,3.1101 0.0198,5.706384 0.044,5.769521 0.0391,0.101845 0.35016,0.114794 2.75776,0.114794 h 2.7137 v 0.762012 0.762013 h -3.48348 -3.48349 z M 137.04065,63.424509 c -3.56945,-0.368963 -6.99411,-1.708801 -9.89232,-3.870193 -2.21529,-1.652091 -4.02644,-3.726851 -5.41861,-6.207293 -1.03589,-1.845661 -1.76347,-4.077827 -2.11822,-6.498603 -0.15536,-1.060142 -0.17381,-3.830405 -0.0329,-4.934936 0.5598,-4.387044 2.48463,-8.225276 5.67851,-11.323317 0.45378,-0.440161 1.08422,-1.010563 1.40098,-1.267559 2.71917,-2.206154 6.62748,-3.839139 10.05596,-4.201611 2.51154,-0.265531 5.00501,-0.130391 7.24265,0.392532 2.7403,0.64039 5.60106,2.044847 7.84009,3.848995 0.62764,0.505737 2.26211,2.044138 2.26211,2.129151 0,0.02669 -0.56362,0.619003 -1.25248,1.316249 -0.68886,0.697247 -2.00333,2.030183 -2.92105,2.962082 l -1.66857,1.694362 -0.39379,-0.460628 c -1.96547,-2.299064 -4.18341,-3.635924 -6.79089,-4.093196 -0.9793,-0.17174 -2.80073,-0.17502 -3.73749,-0.0067 -3.45976,0.621541 -6.38346,2.869905 -8.04163,6.184123 -0.84412,1.687161 -1.30329,4.212126 -1.11663,6.140319 0.17055,1.761781 0.49659,2.890103 1.29648,4.486783 0.63898,1.275483 1.20368,2.040842 2.25561,3.05714 1.49024,1.439753 3.1827,2.358323 5.20702,2.82607 0.81944,0.189343 2.70446,0.267411 3.59509,0.14889 1.94093,-0.25829 3.54039,-0.896267 5.07337,-2.023619 0.52166,-0.383624 1.88358,-1.690117 2.39294,-2.295546 l 0.23793,-0.28281 2.93204,2.931374 c 1.61263,1.612255 2.93205,2.951359 2.93205,2.975786 0,0.0918 -1.51701,1.529329 -2.24975,2.13188 -2.96362,2.437063 -6.53362,3.872429 -10.55931,4.24552 -0.92285,0.08553 -3.36058,0.08251 -4.20922,-0.0052 z m 37.33861,10e-4 c -2.1369,-0.202769 -4.4747,-0.834252 -6.28655,-1.698114 -3.95718,-1.886713 -6.9901,-4.702181 -9.09658,-8.444359 -0.95731,-1.700676 -1.69428,-3.938723 -2.04716,-6.216906 -0.20882,-1.348064 -0.22506,-3.977567 -0.0327,-5.297798 0.54945,-3.771673 1.89272,-6.840541 4.23011,-9.664166 3.1485,-3.80348 8.13098,-6.483815 13.01519,-7.001555 1.0587,-0.112225 3.55674,-0.110534 4.64464,0.0031 2.46677,0.25776 4.7619,0.961526 7.03276,2.156484 5.0708,2.66832 8.55327,7.118677 9.90312,12.655492 1.02959,4.223156 0.52886,8.752859 -1.39992,12.663916 -1.09333,2.216985 -2.65875,4.313011 -4.32349,5.788931 -3.33683,2.958364 -7.28813,4.685356 -11.57533,5.059222 -0.9607,0.08378 -3.16042,0.08146 -4.06406,-0.0043 z m 4.39064,-7.828351 c 1.8943,-0.434395 3.2335,-1.101623 4.75927,-2.371196 3.37979,-2.812297 4.85954,-7.466776 3.75796,-11.820493 -0.33128,-1.309272 -0.98275,-2.748373 -1.75766,-3.882634 -0.55193,-0.807887 -2.19045,-2.420862 -3.01251,-2.965543 -1.61253,-1.068435 -3.06063,-1.567345 -5.08966,-1.753524 -3.20208,-0.293816 -6.29043,0.855562 -8.65654,3.221665 -1.66784,1.667842 -2.7718,3.813624 -3.21597,6.250907 -0.20095,1.102659 -0.18713,3.076753 0.0291,4.155172 0.76225,3.801868 3.03423,6.780265 6.40135,8.391704 0.81679,0.390901 2.04222,0.770488 2.94641,0.912676 0.74623,0.117348 3.09114,0.03259 3.83826,-0.138734 z"
         id="path2" /><path
         style="fill:#040709"
         d="m 17.110202,97.32641 c -0.102118,-0.03099 -0.265407,-0.09882 -0.362863,-0.150736 -0.332713,-0.177246 -2.880821,-2.174286 -3.139255,-2.460342 -0.357098,-0.395265 -0.47391,-0.84158 -0.364041,-1.390927 0.0445,-0.222491 1.751287,-2.551524 4.116769,-5.61762 0.400325,-0.518894 2.457138,-3.22948 4.570696,-6.023524 2.113557,-2.794045 4.190944,-5.537289 4.616413,-6.096098 0.42547,-0.558808 1.118338,-1.473223 1.539706,-2.032032 0.838075,-1.111436 1.008669,-1.294474 1.314449,-1.410331 0.350293,-0.132723 1.073056,-0.09562 1.319726,0.06774 0.119745,0.0793 0.240756,0.144404 0.268914,0.144667 0.0574,5.36e-4 3.752416,-4.833208 3.810694,-4.985079 0.02047,-0.05333 -0.0563,-0.169897 -0.170598,-0.259032 -0.499896,-0.389857 -1.66107,-1.375817 -1.679569,-1.426133 -0.01117,-0.03038 0.176778,-0.312287 0.417663,-0.626453 l 0.437973,-0.571211 -0.319222,-0.329446 c -1.098037,-1.133205 -2.902133,-3.57965 -3.912692,-5.305806 -0.619193,-1.057656 -1.60171,-3.098261 -2.076604,-4.312931 -1.135388,-2.904063 -1.819036,-5.853605 -2.043746,-8.817569 -0.124458,-1.641617 -0.04781,-5.091259 0.144642,-6.509867 0.583575,-4.301656 2.105314,-8.473507 4.461578,-12.231429 1.375976,-2.194494 2.568156,-3.681243 4.469714,-5.574106 3.990557,-3.972312 8.907069,-6.798044 14.129418,-8.120788 2.680082,-0.678825 4.265718,-0.883997 7.171953,-0.928006 3.101081,-0.04696 5.051651,0.164776 7.83784,0.850805 6.429213,1.583032 12.291374,5.308902 16.631342,10.570543 1.234869,1.497116 2.844346,3.967688 3.751861,5.759161 3.155897,6.22988 4.055681,13.713812 2.469263,20.538042 -0.143823,0.618681 -0.294169,1.288163 -0.334102,1.487738 -0.259786,1.298367 -1.712883,4.803307 -2.813184,6.785536 -0.664561,1.197231 -2.029674,3.181573 -3.04123,4.420766 -3.425037,4.19579 -7.65791,7.301346 -12.644074,9.276649 -2.522312,0.999231 -4.544737,1.538827 -7.125686,1.901178 -3.649285,0.512339 -7.812729,0.314974 -11.336136,-0.537382 -2.862584,-0.692495 -5.040444,-1.527536 -7.54639,-2.893457 -0.707625,-0.385707 -1.307617,-0.700755 -1.333315,-0.700106 -0.0257,6.48e-4 -0.208343,0.231338 -0.405876,0.512644 -0.197534,0.281306 -0.386834,0.528574 -0.420668,0.549485 -0.03383,0.02091 -0.502489,-0.293068 -1.041455,-0.697729 -0.538966,-0.404661 -1.019148,-0.74938 -1.06707,-0.766041 -0.07785,-0.02706 -3.550038,4.496337 -3.706846,4.8291 -0.04901,0.104001 -0.003,0.205934 0.199863,0.442952 0.432501,0.505279 0.527863,1.140354 0.252413,1.680977 -0.157331,0.308793 -0.596708,0.900104 -4.387475,5.904625 -1.153483,1.522814 -2.946342,3.889831 -3.98413,5.260038 -1.037788,1.370207 -3.008707,3.977873 -4.379821,5.794813 -1.371113,1.81694 -2.595776,3.413652 -2.721472,3.54825 -0.410401,0.439463 -1.026789,0.614936 -1.57537,0.448474 z M 57.79138,71.12037 c 5.730928,-0.389085 11.15704,-2.428569 15.530536,-5.83738 2.083906,-1.624248 4.500988,-4.168003 5.727899,-6.028083 0.156725,-0.237606 0.37311,-0.562641 0.480854,-0.722301 1.829711,-2.711334 3.548347,-6.902907 4.103389,-10.007737 0.517925,-2.897203 0.641271,-5.318615 0.390386,-7.663688 -0.213196,-1.992787 -0.371095,-2.900395 -0.770166,-4.426927 -0.803348,-3.072975 -2.1826,-6.149973 -3.85485,-8.599852 -3.575646,-5.23839 -8.582516,-9.050011 -14.433844,-10.988171 -1.931092,-0.639644 -3.272284,-0.946776 -5.323603,-1.219102 -1.537582,-0.204125 -5.286684,-0.182072 -6.85811,0.04034 -2.64663,0.374592 -5.362508,1.139154 -7.585839,2.135533 -7.143873,3.201505 -12.629985,9.14664 -15.183657,16.454074 -0.68185,1.951143 -1.020264,3.366181 -1.336423,5.588089 -0.187474,1.317541 -0.188822,5.354728 -0.0023,6.749251 0.668444,4.996316 2.528288,9.526344 5.555308,13.531082 2.071961,2.741199 4.823726,5.212562 7.764841,6.973613 2.814014,1.684947 5.839041,2.866553 8.901135,3.476871 2.67845,0.533853 4.699276,0.693419 6.894397,0.544388 z m 92.4212,14.191355 c -1.84724,-0.373526 -3.06052,-1.776248 -3.30428,-3.820213 l -0.0488,-0.409467 0.37025,-0.04411 c 0.20364,-0.02426 0.52681,-0.06258 0.71816,-0.08515 l 0.34791,-0.04104 0.0917,0.545855 c 0.27293,1.624305 1.38004,2.465835 3.24024,2.462944 1.08423,-0.0017 1.81448,-0.322039 2.2669,-0.994479 0.30316,-0.450575 0.40662,-0.846285 0.36345,-1.39008 -0.0615,-0.774827 -0.47894,-1.32846 -1.26308,-1.675244 -0.21023,-0.09298 -0.9585,-0.334896 -1.66282,-0.537599 -2.12367,-0.611191 -2.6158,-0.840773 -3.24561,-1.514085 -0.40069,-0.428371 -0.52845,-0.669095 -0.66698,-1.256705 -0.30264,-1.283663 0.0818,-2.669802 0.9641,-3.476173 0.73716,-0.673721 1.44311,-0.935644 2.6657,-0.989028 0.73353,-0.03203 0.9694,-0.01378 1.47534,0.114163 1.62231,0.410248 2.57708,1.550465 2.78988,3.331763 0.0425,0.355369 0.0629,0.344822 -0.80065,0.412724 l -0.52467,0.04126 -0.0391,-0.199944 c -0.2048,-1.047145 -0.61945,-1.680866 -1.3272,-2.028371 -0.3872,-0.190118 -0.47477,-0.203606 -1.32183,-0.203606 -1.06832,0 -1.4439,0.110262 -1.94318,0.570481 -0.58294,0.537339 -0.77584,1.167252 -0.57208,1.868163 0.21377,0.735326 0.73604,1.075557 2.39112,1.55768 2.3156,0.674531 2.90377,0.926601 3.51835,1.507845 0.65578,0.620213 0.96015,1.39753 0.96015,2.452129 0,0.350025 -0.0361,0.809469 -0.0802,1.020987 -0.29161,1.398326 -1.40764,2.455394 -2.93365,2.778644 -0.61418,0.1301 -1.7874,0.130421 -2.4291,6.65e-4 z m 11.79369,-0.0053 c -1.13053,-0.224366 -2.03491,-0.910562 -2.52746,-1.917702 -0.50774,-1.038206 -0.50562,-1.013123 -0.53702,-6.331958 l -0.0282,-4.771647 h 0.68847 0.68847 l 0.0259,4.626502 c 0.0255,4.550226 0.0286,4.634461 0.18694,5.109232 0.21435,0.642564 0.55476,1.135267 0.98132,1.420346 0.45678,0.305268 0.74212,0.384984 1.55514,0.434462 1.47368,0.08968 2.38452,-0.40855 2.77431,-1.517557 0.24857,-0.707224 0.29057,-1.555657 0.29118,-5.881918 l 6e-4,-4.191067 h 0.68944 0.68944 l -2.1e-4,4.372498 c -1.2e-4,2.729819 -0.0301,4.617878 -0.0799,5.025652 -0.25724,2.1079 -1.23557,3.294376 -2.99246,3.629112 -0.69322,0.132077 -1.72334,0.129528 -2.40601,-0.006 z m -29.02665,-1.389229 c -0.22442,-0.709767 -0.89479,-2.792737 -1.48972,-4.628824 -0.59493,-1.836086 -1.28095,-3.975163 -1.5245,-4.753504 -0.24354,-0.778341 -0.50482,-1.604034 -0.58061,-1.834873 l -0.1378,-0.419708 0.77579,0.02056 0.7758,0.02056 0.3856,1.27002 c 0.3688,1.214664 0.62969,2.070224 2.10238,6.894396 0.35946,1.17749 0.70986,2.395759 0.77868,2.707264 0.0688,0.311505 0.13966,0.551833 0.15743,0.534062 0.0178,-0.01777 0.1784,-0.566558 0.35696,-1.219526 0.17856,-0.652968 0.51605,-1.791382 0.74997,-2.529808 0.23392,-0.738426 0.85579,-2.730544 1.38194,-4.426928 0.52615,-1.696384 0.96954,-3.125157 0.98532,-3.17505 0.0205,-0.06469 0.23894,-0.09072 0.76157,-0.09072 0.72593,0 0.73244,0.0016 0.68475,0.163288 -0.0837,0.283866 -3.06724,9.453701 -3.61862,11.121749 l -0.52776,1.596597 -0.80457,0.02046 -0.80457,0.02046 z m 9.1774,-5.173118 v -6.45896 h 0.71705 0.71705 l -0.0162,1.215591 c -0.009,0.668575 -0.0213,3.575107 -0.0276,6.45896 l -0.0114,5.243369 h -0.68944 -0.68944 z m 27.86788,6.389986 c 0,-0.03794 0.42153,-1.352407 0.93672,-2.921047 0.5152,-1.56864 1.36812,-4.174707 1.89537,-5.791262 0.52725,-1.616554 1.05589,-3.208615 1.17475,-3.537913 l 0.2161,-0.598724 h 0.81584 0.81584 l 0.83939,2.485611 c 0.72279,2.140318 1.4128,4.164612 3.1818,9.334522 0.19631,0.573708 0.35693,1.056513 0.35693,1.072901 0,0.01639 -0.35107,0.02053 -0.78016,0.0092 l -0.78016,-0.0206 -0.65239,-1.941317 -0.65239,-1.941317 h -2.33559 -2.33559 l -0.21767,0.707583 c -0.11971,0.389171 -0.38928,1.270927 -0.59904,1.95946 l -0.38138,1.251877 h -0.74919 c -0.42501,0 -0.74918,-0.02984 -0.74918,-0.06897 z m 6.87293,-5.325233 c -0.21574,-0.562211 -1.79285,-5.810908 -1.79285,-5.966694 0,-0.05806 -0.0267,-0.105567 -0.0593,-0.105567 -0.0326,0 -0.1181,0.253096 -0.18995,0.562437 -0.14846,0.639101 -0.64292,2.296463 -1.23478,4.138758 -0.22157,0.689698 -0.40286,1.302029 -0.40286,1.360736 0,0.09116 0.27128,0.106738 1.85837,0.106738 1.51539,0 1.85154,-0.01779 1.82137,-0.09641 z m 5.82727,-1.064753 v -6.45896 h 0.72573 0.72573 v 5.732361 5.732362 l 2.73961,0.01902 2.73962,0.01902 0.0208,0.707582 0.0208,0.707583 h -3.48611 -3.48612 z"
         id="path1" /></g></g></svg>
