<?xml version="1.0" encoding="UTF-8" standalone="no"?>
<!-- Created with Inkscape (http://www.inkscape.org/) -->

<svg
   width="485"
   height="485"
   viewBox="0 0 128.32291 128.32291"
   version="1.1"
   id="svg1"
   xml:space="preserve"
   xmlns="http://www.w3.org/2000/svg"
   xmlns:svg="http://www.w3.org/2000/svg"><defs
     id="defs1" /><g
     id="layer1"
     transform="translate(-43.455482,-25.791308)"><g
       id="g1"
       transform="translate(0.96649281,25.769663)"><path
         style="fill:#164b8b"
         d="m 52.884916,128.16263 c -0.232833,-0.0607 -0.583939,-0.19331 -0.780234,-0.29477 -0.402951,-0.20826 -4.467619,-3.95579 -4.955706,-4.56904 -0.599353,-0.75305 -0.860479,-1.8709 -0.661234,-2.83065 0.156798,-0.7553 0.533436,-1.405 1.293893,-2.23198 0.803233,-0.87349 2.700229,-2.99741 9.635095,-10.78767 6.094512,-6.84626 6.467522,-7.25218 6.94052,-7.552977 0.536087,-0.340914 1.123889,-0.497339 1.869865,-0.497606 0.729046,-2.61e-4 1.284604,0.156928 1.873595,0.530111 0.21952,0.139092 0.436574,0.229742 0.482343,0.201452 0.06301,-0.0389 3.052475,-3.362553 5.199984,-5.781213 L 73.950461,94.159724 73.069632,93.24762 C 70.249426,90.327278 67.509085,86.657851 65.306781,82.852849 64.410031,81.303499 62.719782,77.794245 61.984318,75.954831 59.93832,70.837736 58.712127,65.673049 58.204698,60.035182 57.924447,56.921416 58.004551,52.194067 58.396943,48.689848 59.569696,38.216673 63.72144,28.341976 70.411963,20.112776 81.059743,7.0162367 96.701102,-0.30781334 113.29458,0.03303361 c 3.55439,0.0730106 6.17953,0.35000458 9.44034,0.99610259 9.84251,1.9502022 18.82159,6.6255785 26.40711,13.7500948 3.25735,3.059382 6.17729,6.607526 8.79746,10.690155 3.07107,4.785218 5.80071,11.317895 7.03153,16.828128 1.02336,4.581464 1.43584,8.284105 1.44311,12.954001 0.006,3.647296 -0.15065,5.649095 -0.71643,9.174105 -0.61256,3.816426 -1.47707,6.985293 -2.96106,10.853754 -0.91708,2.390651 -1.19368,3.011753 -2.26043,5.075808 -1.27175,2.460691 -1.99379,3.690111 -3.33156,5.672667 -2.20901,3.273723 -4.0612,5.517345 -6.85021,8.2979 -3.63496,3.623946 -7.35585,6.487301 -11.63734,8.955341 -4.99067,2.87685 -10.5804,4.96206 -16.47252,6.14496 -4.57533,0.91854 -10.80365,1.1554 -15.748,0.59887 -6.06014,-0.68212 -11.579574,-2.26193 -16.975663,-4.8589 -4.022154,-1.93574 -7.839332,-4.33164 -10.684129,-6.706042 -0.381404,-0.318337 -0.731666,-0.578795 -0.778361,-0.578795 -0.04669,0 -1.088188,1.114425 -2.314429,2.476497 -3.491645,3.87843 -3.250319,3.57037 -2.975566,3.79839 0.230426,0.19124 0.522673,0.70986 0.705007,1.25111 0.342849,1.01773 0.155043,2.41915 -0.432975,3.23088 -0.147733,0.20394 -0.957767,1.13472 -1.800076,2.06839 -2.573147,2.85225 -5.416717,6.0278 -10.311806,11.51568 -4.85063,5.43805 -5.050606,5.63746 -5.908171,5.89166 -0.484328,0.14355 -1.610321,0.17006 -2.075495,0.0488 z m 63.373004,-23.42535 c 5.64768,-0.43679 11.29578,-2.02518 16.97567,-4.773967 5.65026,-2.734456 10.57579,-6.505853 15.13293,-11.587046 2.65642,-2.961898 5.40602,-6.97842 7.17188,-10.476418 2.4056,-4.765286 3.82025,-9.123789 4.74039,-14.605001 0.86069,-5.127085 0.90272,-10.266006 0.12498,-15.282333 -0.43913,-2.832303 -1.18365,-6.121764 -1.86134,-8.223813 C 154.51595,27.29947 145.69987,16.84196 134.12259,10.822237 126.2076,6.7067613 117.06162,4.9194836 108.01636,5.7206395 98.000145,6.607794 88.460038,10.681039 80.697917,17.384524 c -1.247694,1.077527 -3.699026,3.516835 -4.805034,4.781464 -1.889349,2.160316 -4.25105,5.46029 -5.649245,7.893616 -2.496394,4.344561 -4.366007,9.085079 -5.410863,13.719577 -0.892457,3.958524 -1.208207,6.507777 -1.295118,10.456334 -0.158282,7.191047 1.219822,14.159435 4.160913,21.039667 0.376305,0.880309 1.560271,3.240078 2.315147,4.614334 0.58419,1.063519 2.370548,3.777713 3.413727,5.186817 3.71541,5.018697 8.665339,9.549521 13.95914,12.777234 3.700027,2.255963 8.068593,4.142533 12.306245,5.314473 3.634231,1.00506 6.429041,1.442 10.807751,1.6897 0.89739,0.0508 4.52475,-0.0251 5.75734,-0.12046 z M 85.015917,55.166848 V 19.310514 h 27.220333 27.22034 v 7.62 7.62 h -19.09234 -19.09233 v 7.196667 7.196667 h 16.891 16.891 v 7.577667 7.577667 h -16.891 -16.891 v 13.462 13.462001 h -8.128003 -8.128 z"
         id="path2" /><path
         style="fill:#030404"
         d="m 52.615192,128.03916 c -0.681464,-0.24255 -0.933643,-0.44668 -3.301818,-2.67279 -2.006822,-1.88644 -2.243481,-2.13793 -2.497667,-2.65426 -0.268691,-0.54579 -0.280791,-0.6124 -0.280791,-1.54581 0,-1.37019 0.146057,-1.65684 1.748119,-3.43078 0.672874,-0.74507 3.886965,-4.34552 7.142425,-8.001 9.409072,-10.565241 8.709877,-9.836872 9.751789,-10.158686 1.010833,-0.312215 2.198872,-0.141342 2.987065,0.429626 l 0.363648,0.26342 0.229801,-0.24135 c 0.12639,-0.13274 0.893235,-0.984297 1.704099,-1.892347 0.810864,-0.90805 1.936329,-2.168272 2.501034,-2.800493 l 1.026735,-1.149493 -1.043495,-1.114915 C 70.073879,90.001437 67.833382,87.023898 65.666307,83.395654 64.634576,81.668271 62.794889,77.907678 61.992962,75.886795 59.825027,70.423525 58.576503,64.92098 58.175318,59.061515 58.06122,57.395069 58.061551,53.182822 58.175909,51.549287 58.89,41.348917 61.919198,32.418837 67.474675,24.136514 70.537582,19.570211 74.589538,15.17239 78.908477,11.726752 84.805144,7.0224069 91.836953,3.5232635 99.028251,1.7148239 103.7402,0.52988187 107.36314,0.08482693 112.27858,0.08710574 c 6.24057,0.0028931 11.09191,0.77376317 16.80634,2.67049686 4.95467,1.644556 9.37991,3.8716505 13.7367,6.9132822 4.6595,3.2529662 9.27317,7.7239782 12.56824,12.1796292 2.23188,3.017972 3.5485,5.142339 5.14247,8.297333 1.71863,3.401729 3.30879,7.686378 4.19489,11.303001 0.81736,3.336094 1.31919,6.624118 1.57514,10.320456 0.12903,1.863464 0.0554,6.999892 -0.12534,8.740222 -0.57838,5.569938 -1.5575,9.737267 -3.4588,14.721323 -0.89872,2.355886 -1.16703,2.956431 -2.32635,5.207 -1.86392,3.618387 -3.73116,6.496666 -6.20664,9.567334 -1.70393,2.1136 -4.83304,5.335113 -6.92156,7.125944 -6.98227,5.987053 -14.95492,10.007923 -23.72933,11.967483 -6.05427,1.35209 -12.70104,1.5687 -19.17209,0.62481 -8.922729,-1.3015 -17.95812,-5.24152 -25.177693,-10.979129 l -1.217026,-0.967207 -0.18951,0.199216 c -0.182278,0.191614 -3.40781,3.78042 -4.682748,5.21014 l -0.617643,0.69263 0.312474,0.40789 c 0.906098,1.18278 1.041277,2.84241 0.330348,4.05578 -0.272507,0.46509 -0.392216,0.60261 -4.573901,5.25433 -4.319563,4.8051 -5.528883,6.1579 -9.260671,10.35945 -1.551009,1.74625 -2.939929,3.28403 -3.08649,3.4173 -0.146561,0.13327 -0.514124,0.36105 -0.816807,0.50618 -0.490845,0.23535 -0.646431,0.26655 -1.439334,0.28865 -0.696416,0.0194 -0.984112,-0.009 -1.328057,-0.13149 z M 117.18925,104.7025 c 7.32786,-0.75305 15.21041,-3.61082 21.463,-7.781294 4.90075,-3.268795 9.40235,-7.611143 12.82887,-12.375024 4.74925,-6.602862 7.48392,-13.179182 8.83705,-21.251334 0.4969,-2.964287 0.64815,-4.822249 0.6503,-7.98863 0.002,-3.217767 -0.19048,-5.460998 -0.73554,-8.563704 C 159.4971,42.553899 158.56739,39.321 157.07335,35.755618 152.58931,25.054887 144.51978,16.238303 134.28816,10.86102 130.03099,8.6236413 125.03795,6.9623586 119.98325,6.1014976 115.76977,5.3839033 110.13211,5.3212177 105.67458,5.9423985 c -4.95367,0.690321 -9.934683,2.2213127 -14.435663,4.4370225 -2.210149,1.087996 -3.489797,1.817821 -5.335168,3.04282 -5.967311,3.961236 -10.285009,8.319607 -14.388733,14.524273 -4.198469,6.347917 -7.004883,14.348961 -7.795553,22.225001 -0.844917,8.416416 0.477028,16.948416 3.85789,24.899303 0.456212,1.07289 1.711884,3.584531 2.466157,4.932898 1.240368,2.217329 3.687213,5.665303 5.630385,7.93406 3.402022,3.972043 8.090185,7.885064 12.474689,10.412122 5.676556,3.271742 11.926656,5.404092 18.118666,6.181542 0.90805,0.11402 2.12725,0.24242 2.70933,0.28535 1.58155,0.11663 6.65222,0.0461 8.21267,-0.11429 z"
         id="path1" /></g></g></svg>
